<svg width="165" height="63" viewBox="0 0 165 63" fill="none" xmlns="http://www.w3.org/2000/svg">
<path d="M48.5858 13.7527C48.5783 13.7827 47.8493 16.417 48.6225 15.8416C49.2442 15.3789 49.3905 14.1546 49.4241 13.455C49.5151 11.5632 47.7046 12.8987 47.4223 13.936C46.8565 16.0147 48.99 16.4137 49.5112 14.4124C49.9088 12.8853 48.8848 12.1535 48.2927 13.8352C48.0055 14.6506 48.6822 16.286 49.108 14.7651C49.2169 14.3765 49.3242 13.8351 49.0989 13.4596C48.8748 13.0861 48.1485 13.2876 47.9628 13.597C47.4497 14.4523 48.2842 15.7731 48.5721 14.4536C48.7905 13.4527 48.1337 13.409 47.5964 14.0001" stroke="#FF6225" stroke-width="4.5" stroke-linecap="round" stroke-linejoin="round"/>
<path d="M68.7047 13.3404C67.7652 12.9851 66.7563 12.5246 66.6983 13.8993C66.6792 14.3529 66.8944 15.5662 67.587 15.4385C68.8836 15.1993 68.8322 12.2141 67.4679 12.012C65.9763 11.791 65.9996 14.6864 67.1747 15.0445C68.6408 15.4913 68.6312 12.0031 67.926 12.3922C67.5565 12.5961 67.3595 13.3962 67.2801 13.7756C67.2649 13.8483 67.2576 14.5405 67.4725 14.3391C67.9435 13.8974 67.6267 12.1893 67.1564 13.313C66.8575 14.027 67.4793 14.8336 67.5458 13.771C67.5843 13.1539 67.4385 14.7185 67.3854 14.8246" stroke="#FF6225" stroke-width="4.5" stroke-linecap="round" stroke-linejoin="round"/>
<path d="M41 23.8946C42.3185 31.6321 43.5229 40.7242 49.644 46.3451C54.2679 50.5912 60.3443 51.5315 65.2874 47.1376C67.7909 44.9122 69.4959 41.8793 70.876 38.8738C72.321 35.727 73.6841 32.362 74.22 28.9198C74.4312 27.563 74.463 25.8945 75.2186 24.7192" stroke="#FF6225" stroke-width="4.5" stroke-linecap="round" stroke-linejoin="round"/>
<path d="M98.5858 13.7527C98.5783 13.7827 97.8493 16.417 98.6225 15.8416C99.2442 15.3789 99.3905 14.1546 99.4241 13.455C99.5151 11.5632 97.7046 12.8987 97.4223 13.936C96.8565 16.0147 98.99 16.4137 99.5112 14.4124C99.9088 12.8853 98.8848 12.1535 98.2927 13.8352C98.0055 14.6506 98.6822 16.286 99.108 14.7651C99.2169 14.3765 99.3242 13.8351 99.0989 13.4596C98.8748 13.0861 98.1485 13.2876 97.9628 13.597C97.4497 14.4523 98.2842 15.7731 98.5721 14.4536C98.7905 13.4527 98.1337 13.409 97.5964 14.0001" stroke="#FF6225" stroke-width="4.5" stroke-linecap="round" stroke-linejoin="round"/>
<path d="M118.705 13.3404C117.765 12.9851 116.756 12.5246 116.698 13.8993C116.679 14.3529 116.894 15.5662 117.587 15.4385C118.884 15.1993 118.832 12.2141 117.468 12.012C115.976 11.791 116 14.6864 117.175 15.0445C118.641 15.4913 118.631 12.0031 117.926 12.3922C117.557 12.5961 117.359 13.3962 117.28 13.7756C117.265 13.8483 117.258 14.5405 117.472 14.3391C117.944 13.8974 117.627 12.1893 117.156 13.313C116.858 14.027 117.479 14.8336 117.546 13.771C117.584 13.1539 117.438 14.7185 117.385 14.8246" stroke="#FF6225" stroke-width="4.5" stroke-linecap="round" stroke-linejoin="round"/>
<path d="M91 23.8946C92.3185 31.6321 93.5229 40.7242 99.644 46.3451C104.268 50.5912 110.344 51.5315 115.287 47.1376C117.791 44.9122 119.496 41.8793 120.876 38.8738C122.321 35.727 123.684 32.362 124.22 28.9198C124.431 27.563 124.463 25.8945 125.219 24.7192" stroke="#FF6225" stroke-width="4.5" stroke-linecap="round" stroke-linejoin="round"/>
<path d="M33.2331 8.2503C29.8182 6.1286 25.1989 2.79013 21.1029 5.28514C18.7498 6.71842 17.5046 9.70785 16.6306 12.1712C14.433 18.3651 14.5378 24.7663 15.0745 31.2303C15.7275 39.0955 19.9595 62.2734 17.4638 54.7862" stroke="#FF6225" stroke-width="4.5" stroke-linecap="round" stroke-linejoin="round"/>
<path d="M3.01782 32.4004C10.539 30.4123 18.1647 28.7813 25.7344 26.9847C27.516 26.5619 30.1596 25.6375 31.9098 26.1148" stroke="#FF6225" stroke-width="4.5" stroke-linecap="round" stroke-linejoin="round"/>
<path d="M161.703 2.51602C161.331 18.2067 161.597 33.9137 161.923 49.6033C161.991 52.8512 162.183 56.1482 161.923 59.3932C161.858 60.2187 161.789 60.7228 161.262 59.9691" stroke="#FF6225" stroke-width="4.5" stroke-linecap="round" stroke-linejoin="round"/>
<path d="M159.828 31.0771C158.339 29.8058 157.045 28.2783 155.552 27.0337C152.436 24.4367 146.967 23.646 143.238 25.2265C139.15 26.959 137.395 32.9008 136.683 36.8237C135.958 40.8166 136.389 45.1327 140.463 47.0486C146.906 50.0782 154.348 44.5185 159.118 40.6465C160.146 39.8116 162.002 38.6371 162.659 37.4118C162.793 37.1618 161.731 36.8684 161.593 36.8114" stroke="#FF6225" stroke-width="4.5" stroke-linecap="round" stroke-linejoin="round"/>
</svg>
